<svg width="122" height="34" viewBox="0 0 122 34" xmlns="http://www.w3.org/2000/svg"><title>logo</title><g fill="none" fill-rule="evenodd"><path d="M16.606 22.994c-3.288.023-5.968-2.14-6.148-6.174-.18-3.764 3.108-6.288 6.238-6.355 3.603-.09 5.765 4.056 5.765 4.056l9.3-3.448S27.934 1.09 17.575 1.09c-9.683 0-16.371 6.76-16.371 15.933 0 8.157 6.305 16.292 16.146 15.932 10.81-.406 14.503-9.983 14.503-9.983l-9.549-3.178c.023-.045-1.936 3.2-5.697 3.2" fill="#3DAB53" fill-rule="nonzero"/><path d="M16.606 22.994c-3.288.023-5.968-2.14-6.148-6.174-.18-3.764 3.108-6.288 6.238-6.355 3.603-.09 5.765 4.056 5.765 4.056l9.3-3.448S27.934 1.09 17.575 1.09c-9.683 0-16.371 6.76-16.371 15.933 0 8.157 6.305 16.292 16.146 15.932 10.81-.406 14.503-9.983 14.503-9.983l-9.549-3.178c.023-.045-1.936 3.2-5.697 3.2" stroke="#006838" stroke-width="1.127"/><g fill="#FFF" fill-rule="nonzero"><path d="M38.823 10.253c-.452 0-.798-.106-.984-.293-.186-.187-.293-.507-.293-.987 0-.426.107-.72.293-.906.186-.187.505-.267.984-.267h16.47c.48 0 .826.08.985.267.186.186.266.48.266.906 0 .454-.08.8-.266.987-.186.187-.505.293-.984.293h-2.475v5.867h3.672c.479 0 .798.08.985.24.186.16.266.427.266.827 0 .426-.08.746-.266.933-.187.213-.506.32-.985.32h-3.672v7.653c0 .48-.133.827-.399 1.014-.266.186-.585.266-.931.266-.373 0-.692-.106-.958-.293s-.4-.507-.4-.987V18.44h-5.933c-.08 1.067-.213 2.027-.452 2.853a8.627 8.627 0 0 1-.931 2.267c-.4.667-.852 1.28-1.41 1.867-.56.56-1.198 1.12-1.916 1.653-.426.32-.825.453-1.198.427-.372-.027-.665-.214-.878-.587-.266-.373-.346-.72-.24-1.04.107-.32.347-.613.719-.907a15.89 15.89 0 0 0 1.517-1.226c.425-.4.798-.854 1.09-1.36a6.547 6.547 0 0 0 .692-1.707c.187-.64.293-1.36.373-2.24h-3.566c-.478 0-.798-.107-.984-.32-.186-.213-.266-.533-.266-.933 0-.374.08-.64.266-.827.186-.16.506-.24.984-.24h3.646v-5.867h-2.82zm5.402 5.867h5.88v-5.867h-5.88v5.867zM63.063 16.28c-.292.267-.585.4-.904.373-.32-.026-.692-.24-1.091-.64-.187-.106-.453-.32-.772-.586-.346-.267-.665-.534-1.011-.8-.346-.294-.532-.587-.612-.88-.08-.294.027-.614.32-1.014.478-.613 1.143-.64 1.942-.053.292.24.612.48.984.773.373.294.692.56.958.8.32.32.532.64.639.987.08.267-.054.64-.453 1.04zm.506 3.867c-.293 1.146-.586 2.213-.932 3.226a19.5 19.5 0 0 1-1.25 3.014c-.213.426-.479.72-.878.826a1.35 1.35 0 0 1-1.064-.106c-.346-.214-.56-.48-.64-.8-.079-.32.054-.774.347-1.307.426-.773.771-1.627 1.064-2.56.293-.933.586-1.92.852-2.96.106-.507.292-.853.532-1.04.24-.187.559-.24 1.01-.16.427.08.746.24.906.533.212.294.212.747.053 1.334zm.399-9.014c-.293.267-.585.4-.905.374-.32-.027-.665-.24-1.09-.614-.293-.24-.613-.506-.959-.8a20.396 20.396 0 0 0-.851-.693c-.346-.293-.559-.587-.612-.853-.053-.294.027-.614.32-.987.239-.32.531-.507.877-.533.346-.027.692.08 1.065.373.266.213.505.373.691.533.187.16.373.294.506.427s.266.24.4.347c.132.106.239.213.372.346.319.32.532.64.638.987.107.347-.026.693-.399 1.067l-.053.026zm6.386-.026c-.745 0-1.25.16-1.517.506-.293.347-.426.88-.426 1.654v4.8c0 1.413.639 2.133 1.943 2.133h1.969v4.133c0 .214-.053.347-.133.427-.107.053-.373.027-.852-.107-.505-.133-.851-.16-1.064-.053-.186.107-.346.347-.479.693-.106.427-.106.774.053 1.04.16.267.48.454 1.011.534.719.133 1.304.186 1.757.213.452 0 .824-.08 1.09-.267.267-.186.48-.48.586-.88.106-.4.16-.933.16-1.573V20.2h1.968c.745 0 1.251-.16 1.57-.48.293-.32.453-.853.453-1.653V13.24c0-.747-.133-1.307-.4-1.653-.266-.347-.771-.507-1.49-.507H74.24c.053-.107.106-.16.106-.213.027-.027.027-.054.053-.08.24-.534.24-.96.027-1.227h3.805c.452 0 .745-.08.904-.267.16-.186.24-.453.24-.853 0-.4-.08-.693-.213-.88-.133-.187-.452-.293-.931-.293H66.92c-.745 0-1.277.186-1.596.533-.346.373-.506.96-.506 1.76v5.6c0 1.307 0 2.427-.026 3.387-.027.96-.08 1.786-.133 2.506-.08.72-.187 1.36-.32 1.894a9.935 9.935 0 0 1-.532 1.573c-.106.267-.213.48-.292.693-.08.187-.107.374-.107.534a.9.9 0 0 0 .133.453c.08.133.213.267.4.4.319.213.638.267.93.24.293-.053.56-.32.799-.827.292-.613.532-1.306.718-2 .186-.72.346-1.52.453-2.373.106-.88.186-1.813.239-2.853.053-1.04.053-2.187.053-3.44v-5.2c0-.24.027-.374.107-.454a.396.396 0 0 1 .24-.106h5.108l-.08.16c-.027.053-.053.106-.08.186-.213.427-.425.8-.665 1.174h-1.41zm.346 11.226c.186-.453.266-.826.213-1.093-.054-.267-.266-.48-.639-.613-.346-.16-.639-.16-.851-.027-.213.133-.426.4-.586.773-.133.4-.266.72-.399 1.014-.133.293-.24.56-.372.8-.134.24-.267.506-.453.773-.16.267-.346.587-.585.933-.266.4-.373.747-.346 1.04.027.294.16.534.372.72.32.24.612.32.878.24.267-.106.533-.32.772-.64.4-.64.772-1.306 1.118-1.946.319-.667.638-1.334.878-1.974zM76.18 14.6h-5.508v-1.04c0-.16.027-.267.08-.293a.53.53 0 0 1 .24-.054h4.869c.213 0 .319.107.319.347v1.04zm0 3.093c0 .267-.106.4-.32.4h-4.869c-.212 0-.292-.133-.292-.4v-1.066h5.508v1.066h-.027zm2.767 6.827c-.186-.347-.346-.667-.505-.933-.16-.267-.293-.534-.453-.774-.16-.266-.319-.506-.479-.773-.186-.267-.372-.56-.612-.88-.266-.347-.532-.533-.824-.56a.891.891 0 0 0-.772.32c-.133.133-.24.293-.293.453-.053.16-.053.294-.053.454.027.16.053.293.106.426.054.134.133.267.24.374.186.24.346.48.479.693.16.213.293.453.452.693.133.24.293.507.453.774.16.266.319.586.505.906.213.427.426.694.639.774.213.106.479.08.825-.08.372-.187.585-.427.612-.774.026-.293-.08-.666-.32-1.093zM89.272 7.613c0-.48.107-.8.293-.986.213-.187.532-.267 1.01-.267.453 0 .773.08.985.267.213.186.32.506.32.986v2.747h5.375c.532 0 .957.027 1.277.08.319.053.585.16.771.347.187.186.293.426.373.746.053.32.106.747.106 1.254v6.586c0 .48-.026.88-.08 1.174-.053.32-.186.56-.345.72-.187.186-.426.293-.772.373-.32.08-.745.107-1.277.107h-5.375v4.48c0 .373-.107.666-.293.906-.186.214-.532.347-1.037.347-.56 0-.932-.107-1.091-.293-.16-.187-.24-.507-.24-.987v-4.453h-5.215c-.532 0-.931-.027-1.277-.107-.32-.08-.586-.187-.772-.373-.186-.187-.293-.427-.346-.747a7.15 7.15 0 0 1-.08-1.173v-6.614c0-.48.027-.906.08-1.2.053-.32.186-.56.346-.72.186-.186.426-.293.772-.346.32-.054.745-.107 1.277-.107h5.215V7.613zm-4.576 5.334c-.213 0-.346.026-.4.106-.053.08-.08.267-.08.534v4.8c0 .346.027.56.107.64.053.08.213.106.479.106h4.523V12.92h-4.63v.027zm7.237 0v6.213h4.63c.292 0 .452-.053.532-.133.053-.08.08-.294.08-.64v-4.8c0-.267-.054-.454-.133-.534-.107-.08-.32-.106-.639-.106h-4.47zM121.92 24.307c0 .826-.16 1.44-.505 1.813-.346.373-.932.56-1.81.56h-14.714c-.878 0-1.463-.187-1.756-.56-.32-.373-.479-.987-.479-1.813V9.56c0-.827.133-1.413.426-1.787.292-.373.878-.533 1.73-.533h14.767c.878 0 1.463.187 1.809.533.32.374.506.96.506 1.787v14.747h.026zM105.583 9.613c-.186 0-.32.054-.4.134-.08.08-.132.266-.132.506v13.2c0 .587.24.88.771.88h13.171a.48.48 0 0 0 .426-.24c.106-.16.16-.373.16-.64V10.227c0-.214-.054-.347-.187-.454-.106-.106-.319-.16-.638-.16h-13.171zm1.73 3.76c-.506 0-.852-.08-1.012-.24-.186-.16-.266-.453-.266-.88 0-.453.08-.773.266-.906.187-.134.506-.214 1.011-.214h9.925c.532 0 .878.08 1.038.24.186.16.266.454.266.934 0 .426-.08.72-.266.88-.186.16-.532.24-1.038.24h-4.15v2.026h3.379c.478 0 .824.08 1.01.24.187.16.293.427.293.854 0 .426-.106.693-.292.853-.187.16-.533.24-1.011.24h-.426c.292.32.532.613.718.853.186.267.426.56.692.934.213.266.293.506.293.773s-.107.48-.32.667h.133c.506 0 .852.08 1.012.266.16.187.266.48.266.907 0 .427-.08.693-.266.853-.187.134-.506.214-1.012.214h-10.563c-.505 0-.851-.08-1.011-.214-.186-.133-.266-.426-.266-.853s.08-.72.266-.907c.186-.186.506-.266 1.011-.266h3.672V17.64h-2.767c-.532 0-.878-.08-1.038-.24-.186-.16-.266-.427-.266-.853 0-.427.08-.694.266-.854.186-.16.532-.24 1.038-.24h2.767v-2.026h-3.353v-.054zm7.13 5.787c-.292-.347-.425-.64-.399-.88.027-.267.107-.48.293-.693h-1.224v3.226h2.74l-.132-.133c-.054-.053-.08-.107-.134-.16-.133-.16-.239-.293-.319-.373-.08-.107-.16-.187-.213-.267a1.944 1.944 0 0 0-.24-.293c-.106-.107-.212-.24-.372-.427z"/></g></g></svg>